<?xml version="1.0" encoding="iso-8859-1"?>
<!-- Generator: Adobe Illustrator 19.0.0, SVG Export Plug-In . SVG Version: 6.00 Build 0)  -->
<svg version="1.1" id="Capa_1" xmlns="http://www.w3.org/2000/svg" xmlns:xlink="http://www.w3.org/1999/xlink" x="0px" y="0px"
	 viewBox="0 0 512 512" style="enable-background:new 0 0 512 512;" xml:space="preserve">
<g>
	<rect x="7.5" y="451.2" style="fill:#85453D;" width="130" height="15"/>
	<rect x="374.5" y="451.2" style="fill:#85453D;" width="130" height="15"/>
	<path style="fill:#85453D;" d="M369.5,396.2v90c0,4.142,3.357,7.5,7.5,7.5s7.5-3.358,7.5-7.5v-42.5L369.5,396.2z"/>
	<path style="fill:#85453D;" d="M127.5,443.7v42.5c0,4.142,3.358,7.5,7.5,7.5s7.5-3.358,7.5-7.5v-90L127.5,443.7z"/>
</g>
<path style="fill:#FFB4A9;" d="M207.4,478.7h-21v-65h-15v72.5c0,4.142,3.358,7.5,7.5,7.5h28.5c4.142,0,7.5-3.358,7.5-7.5
	S211.542,478.7,207.4,478.7z"/>
<path style="fill:#4F4F4F;" d="M325.6,413.7v65h-21c-4.143,0-7.5,3.358-7.5,7.5s3.357,7.5,7.5,7.5h28.5c4.143,0,7.5-3.358,7.5-7.5
	v-72.5H325.6z"/>
<rect x="165" y="128.7" style="fill:#FFA754;" width="15" height="65"/>
<path style="fill:#FFB4A9;" d="M187.5,186.2h-30c-4.142,0-7.5,3.358-7.5,7.5s3.358,7.5,7.5,7.5h30c4.136,0,7.5,3.364,7.5,7.5
	s-3.364,7.5-7.5,7.5h-105v15h105c12.407,0,22.5-10.093,22.5-22.5S199.907,186.2,187.5,186.2z"/>
<rect x="248.5" y="142.72" style="fill:#9DB55F;" width="15" height="75"/>
<rect x="332" y="128.7" style="fill:#FFA754;" width="15" height="65"/>
<rect x="241" y="207.72" style="fill:#DBF4FF;" width="30" height="45"/>
<path style="fill:#7DD9FF;" d="M241,237.723h30c8.964,5.188,15,14.874,15,25.977c0,16.569-13.432,30-30,30s-30-13.431-30-30
	C226,252.598,232.036,242.911,241,237.723z"/>
<path style="fill:#FF4128;" d="M276,117.723v25c0,11.046-8.954,20-20,20s-20-8.954-20-20v-25C236,117.723,276,117.723,276,117.723z"
	/>
<path style="fill:#FFF0D3;" d="M157.5,83.7c0,0,0,21.716,0,30l15,15l15-15c0-8.284,0-30,0-30H157.5z"/>
<path style="fill:#FFCB63;" d="M187.5,113.7c0,0,0,11.716,0,20s-6.716,15-15,15s-15-6.716-15-15s0-20,0-20H187.5z"/>
<path style="fill:#FFF0D3;" d="M324.5,83.7c0,0,0,21.716,0,30l15,15l15-15c0-8.284,0-30,0-30H324.5z"/>
<path style="fill:#FFCB63;" d="M354.5,113.7c0,0,0,11.716,0,20s-6.716,15-15,15s-15-6.716-15-15s0-20,0-20H354.5z"/>
<path style="fill:#49C9FF;" d="M324.5,216.2c-4.136,0-7.5-3.364-7.5-7.5s3.364-7.5,7.5-7.5h30c4.143,0,7.5-3.358,7.5-7.5
	s-3.357-7.5-7.5-7.5h-30c-12.406,0-22.5,10.093-22.5,22.5s10.094,22.5,22.5,22.5h105v-15H324.5z"/>
<path style="fill:#353535;" d="M97.497,130.371l-20,73.329v30l30-30c11,0,20-9,20-20v-55L97.497,130.371z"/>
<path style="fill:#4F4F4F;" d="M44.043,105.318l-32.181,52.808c-2.767,4.539-4.365,9.868-4.365,15.574c0,16.568,13.431,30,30,30h20
	l20,30v-30c11,0,20-9,20-20v-78.382C97.497,105.318,44.043,105.318,44.043,105.318z"/>
<path style="fill:#FFB4A9;" d="M82.497,93.7v80c24.853,0,45-20.147,45-45c0-5.261-0.912-10.307-2.571-15L82.497,93.7z"/>
<path style="fill:#353535;" d="M82.497,83.7l14.143,30h28.286C118.748,96.224,102.089,83.7,82.497,83.7z"/>
<path style="fill:#FFD9D4;" d="M40.068,113.7c-1.659,4.693-2.571,9.739-2.571,15c0,24.853,20.147,45,45,45c8.284,0,15-20.147,15-45
	c0-5.261-0.304-10.307-0.857-15l-14.143-20L40.068,113.7z"/>
<path style="fill:#4F4F4F;" d="M82.497,83.7c-19.592,0-36.25,12.524-42.429,30H96.64C94.581,96.224,89.028,83.7,82.497,83.7z"/>
<path style="fill:#FF6753;" d="M127.5,293.7v-70c0-11.046-8.954-20-20-20h-30v150l20,30h120L127.5,293.7z"/>
<path style="fill:#353535;" d="M429.5,293.7v75c24.853,0,45-20.147,45-45L429.5,293.7z"/>
<path style="fill:#4F4F4F;" d="M444.5,323.7v-30l-90,30l30,45l22.5,15l22.5-15C437.784,368.7,444.5,348.553,444.5,323.7z"/>
<path style="fill:#2DADE3;" d="M454.5,203.7h-30l20,120h30v-100C474.5,212.654,465.546,203.7,454.5,203.7z"/>
<path style="fill:#49C9FF;" d="M424.5,203.7h-20c-11.046,0-20,8.954-20,20v70l-30,30h90v-100
	C444.5,212.654,435.546,203.7,424.5,203.7z"/>
<path style="fill:#FF8D7E;" d="M77.5,203.7h-20c-11.046,0-20,8.954-20,20v100c0,24.853,20.147,45,45,45l15,15v-160
	C97.5,212.654,88.546,203.7,77.5,203.7z"/>
<polygon style="fill:#85453D;" points="474.5,368.7 454.5,383.7 474.5,398.7 504.5,398.7 504.5,368.7 "/>
<rect x="354.5" y="368.7" style="fill:#A45E43;" width="120" height="30"/>
<polygon style="fill:#85453D;" points="97.5,368.7 77.5,383.7 97.5,398.7 157.5,398.7 157.5,368.7 "/>
<polygon style="fill:#FFCB63;" points="353.438,293.7 314.5,373.2 384.5,323.7 384.5,293.7 "/>
<g>
	<polygon style="fill:#FFE2A8;" points="127.5,293.7 127.5,323.7 354.5,373.2 354.5,293.7 	"/>
	<polygon style="fill:#FFE2A8;" points="354.5,323.7 323.438,380.439 354.5,443.7 384.5,443.7 384.5,323.7 	"/>
</g>
<rect x="127.5" y="323.7" style="fill:#FFF0D3;" width="227" height="120"/>
<rect x="7.5" y="368.7" style="fill:#A45E43;" width="90" height="30"/>
<g>
	<path style="fill:#85453D;" d="M504.5,493.7c-4.143,0-7.5-3.358-7.5-7.5V253.7c0-4.142,3.357-7.5,7.5-7.5s7.5,3.358,7.5,7.5v232.5
		C512,490.342,508.643,493.7,504.5,493.7z"/>
	<path style="fill:#85453D;" d="M7.5,493.7c-4.142,0-7.5-3.358-7.5-7.5V253.7c0-4.142,3.358-7.5,7.5-7.5s7.5,3.358,7.5,7.5v232.5
		C15,490.342,11.642,493.7,7.5,493.7z"/>
</g>
<path style="fill:#E18F4E;" d="M429.5,83.7v101l45-46v-10C474.5,103.847,454.353,83.7,429.5,83.7z"/>
<path style="fill:#FFA754;" d="M429.5,83.7c-24.853,0-45,20.147-45,45v10l60,46v-56C444.5,103.847,437.784,83.7,429.5,83.7z"/>
<path style="fill:#60312C;" d="M448.209,138.7c-1.053-1.573-2.303-3.002-3.709-4.261l-15,69.261c24.853,0,45-20.147,45-45v-20
	H448.209z"/>
<path style="fill:#85453D;" d="M444.5,158.7v-24.261c-3.981-3.566-9.235-5.739-15-5.739c-7.801,0-14.672,3.971-18.709,10H384.5v20
	c0,24.853,20.147,45,45,45C437.784,203.7,444.5,183.553,444.5,158.7z"/>
<path style="fill:#CF301B;" d="M271.6,18.3c-6.262,0-11.858,2.827-15.6,7.268l-12,29.366L256,84.3c0,0,36-19.199,36-45.6
	C292,27.433,282.867,18.3,271.6,18.3z"/>
<path style="fill:#FF4128;" d="M240.4,18.3c-11.267,0-20.4,9.133-20.4,20.4c0,26.401,36,45.6,36,45.6V25.568
	C252.258,21.127,246.662,18.3,240.4,18.3z"/>
<g>
</g>
<g>
</g>
<g>
</g>
<g>
</g>
<g>
</g>
<g>
</g>
<g>
</g>
<g>
</g>
<g>
</g>
<g>
</g>
<g>
</g>
<g>
</g>
<g>
</g>
<g>
</g>
<g>
</g>
</svg>
