<svg id="Layer_1" enable-background="new 0 0 510.309 510.309" height="512" viewBox="0 0 510.309 510.309" width="512" xmlns="http://www.w3.org/2000/svg"><g><g><path d="m86.437 82.286-40.316-50.41c-2.07-2.588-1.649-6.364.938-8.434 2.587-2.068 6.364-1.648 8.433.938l40.315 50.411c2.07 2.588 1.649 6.364-.938 8.434-2.575 2.06-6.354 1.66-8.432-.939z" fill="#fff5aa"/></g><path d="m336.978 448.243h-37.561c-22.028-6.101-51.97-9.854-84.962-9.854s-62.934 3.753-84.962 9.854h-37.562v25.397c0 19.469 54.856 35.251 122.523 35.251 67.668 0 122.523-15.782 122.523-35.251v-25.397z" fill="#73c8f0"/><ellipse cx="214.454" cy="448.243" fill="#afe6ff" rx="122.523" ry="35.251"/><g><path d="m260.187 428.823-42.965-165.335c-2.867-11.032 3.752-22.299 14.784-25.166 11.028-2.867 22.299 3.752 25.165 14.784l42.965 165.335c2.867 11.032-3.752 22.299-14.784 25.166-11.008 2.861-22.293-3.729-25.165-14.784z" fill="#55696e"/></g><g><path d="m149.159 444.272c-.789 0-1.586-.045-2.39-.138-11.323-1.306-19.443-11.543-18.138-22.867l10.471-90.807c.203-1.764.634-3.495 1.28-5.149l31.309-80.095c4.149-10.617 16.12-15.859 26.735-11.708 10.616 4.149 15.858 16.12 11.708 26.735l-30.334 77.604-10.165 88.149c-1.212 10.52-10.135 18.276-20.476 18.276z" fill="#748488"/></g><g fill="#80391b"><circle cx="212.064" cy="77.113" r="35.644"/><path d="m374.859 79.883c-7.471-5.866-18.282-4.565-24.148 2.906l-36.74 46.791-13.397-1.477-8.056 14.858 4.754 19.061 23.171 2.577c5.742.455 11.33-1.993 14.887-6.523l42.435-54.043c5.891-7.505 4.531-18.31-2.906-24.15z"/><path d="m163.62 127.612-6.122-31.232-16.451-11.634-19.325-67.476c-2.616-9.132-12.137-14.413-21.27-11.798-9.131 2.615-14.414 12.137-11.798 21.268l20.991 73.291c1.078 3.763 3.407 7.046 6.604 9.307l19.139 13.535z"/><path d="m230.808 127.118-.37-3.691-34.689.004-.311 4.122c-.777 10.303 7.372 19.09 17.704 19.09 10.506 0 18.714-9.072 17.666-19.525z"/></g><path d="m258.126 123.423-27.688.003c.13 9.275-8.505 17.09-17.533 17.09-9.765 0-16.64-7.669-17.157-17.086l-38.25-27.05-22.111 26.493 31.435 22.231-.101 105.859c-.011 11.091 8.977 20.088 20.068 20.088h50.942c11.083 0 20.068-8.985 20.068-20.068v-93.353l39.472 4.391 3.302-33.918z" fill="#e64937"/><path d="m502.869 15.622-24.207-12.871c-4.378-2.328-9.759-1.555-13.305 1.91l-17.617 17.213 56.568 30.077 4.418-24.23c.89-4.878-1.479-9.771-5.857-12.099z" fill="#00558c"/><g><path d="m378.343 129.611c-2.588-2.07-3.009-5.846-.938-8.434l77.412-96.797c2.068-2.587 5.846-3.009 8.433-.938 2.588 2.07 3.009 5.846.938 8.434l-77.412 96.797c-2.063 2.578-5.84 3.013-8.433.938z" fill="#fff5aa"/></g><g><path d="m434.808 232.432c-3.163-.988-4.926-4.353-3.938-7.516l56.459-180.737c.989-3.163 4.353-4.926 7.517-3.938 3.163.988 4.926 4.353 3.938 7.516l-56.459 180.737c-.988 3.159-4.35 4.927-7.517 3.938z" fill="#fff5aa"/></g><g><path d="m67.985 228.494-56.459-180.737c-.987-3.163.775-6.528 3.938-7.516 3.163-.987 6.528.775 7.517 3.938l56.459 180.737c.987 3.163-.775 6.528-3.938 7.516-3.171.99-6.531-.781-7.517-3.938z" fill="#fff5aa"/></g><path d="m47.736 7.381c-5.204-5.085-13.101-6.218-19.525-2.802l-17.335 9.217c-6.424 3.416-9.901 10.596-8.595 17.754l3.72 20.401 56.568-30.077z" fill="#00558c"/><g><path d="m6.006 57.952c-2.147 0-4.224-1.156-5.303-3.184-1.556-2.926-.444-6.559 2.481-8.115l56.568-30.077c2.926-1.555 6.558-.445 8.114 2.481s.444 6.559-2.481 8.115l-56.567 30.077c-.898.477-1.862.703-2.812.703z" fill="#0091c8"/></g><g><path d="m504.303 57.952c-.95 0-1.914-.226-2.812-.703l-56.567-30.077c-2.926-1.556-4.037-5.189-2.481-8.115 1.555-2.926 5.188-4.036 8.114-2.481l56.567 30.077c2.926 1.556 4.037 5.189 2.481 8.115-1.077 2.028-3.155 3.184-5.302 3.184z" fill="#0091c8"/></g></g></svg>